# xmcd CD database file
#
# Track frame offsets:
#	150
#	13340
#	31367
#	41455
#	45185
#	62792
#	80490
#	95212
#	113580
#	116147
#	134167
#	152877
#	167892
#	182550
#	198577
#	214070
#	230825
#
# Disc length: 3182 seconds
#
# Revision: 0
# Processed by: cddbd v1.5PL3 Copyright (c) Steve Scherf et al.
# Submitted via: CDex 1.51
#
DISCID=f60c6c11
DTITLE=Various Artist - There's A Little Cowboy In All Of Us
DYEAR=1900
DGENRE=Country
TTITLE0=The Good Brothers - Video Stars
TTITLE1=The Good Brothers - It's A Rodeo
TTITLE2=Anita Perras and Tim Taylor - Three Little Words
TTITLE3=Gary Fjellgaard talks about 'Two Gun Kid'
TTITLE4=Gary Fjellgaard - Two Gun Kid
TTITLE5=Gary Fjellgaard - Never Leave the Farm
TTITLE6=Gary Fjellgaard - Santa Claus Comes by Boat
TTITLE7=Elvis is Alive and Well and Playing Santa at Sears
TTITLE8=Michelle Wright talks about 'Help Me Make it Through the Night'
TTITLE9=Michelle Wright - Reaching for the Stars
TTITLE10=Gary Fjellgaard - Once Upon a Time
TTITLE11=The Good Brothers - Mom's Songs - You are my Sunshine
TTITLE12=Gary Fellgaard - Ten Years Old and Barefoot
TTITLE13=Terry Carisse and Nev Wells - Family Bible
TTITLE14=Gary Fjellgaard - Children of the Street
TTITLE15=Terry Sumsion - Shenandoah
TTITLE16=Terry Carisse - It is No Secret
EXTD=
EXTT0=
EXTT1=
EXTT2=
EXTT3=
EXTT4=
EXTT5=
EXTT6=
EXTT7=
EXTT8=
EXTT9=
EXTT10=
EXTT11=
EXTT12=
EXTT13=
EXTT14=
EXTT15=
EXTT16=
PLAYORDER=
